<svg id="Capa_1" data-name="Capa 1" xmlns="http://www.w3.org/2000/svg" viewBox="0 0 442.66 91.52"><defs><style>.cls-1{fill:#fff;}.cls-2{fill:none;stroke:#1d1d1b;stroke-miterlimit:10;stroke-width:0.25px;}</style></defs><path class="cls-1" d="M133.27,141.63a2.22,2.22,0,0,1-1.58-.94,1.45,1.45,0,0,1-.4-.78.66.66,0,0,1,.1-.27c2.35-2.21,3.53-3.68,3.56-4.39,0-.47-.53-.71-1.45-.71a25.89,25.89,0,0,0-4.8.67A52.3,52.3,0,0,0,112,141.79c-.54.32-1.06.63-1.55.94a30,30,0,0,0-8,7.05,7,7,0,0,0-1.51,3.9,2.57,2.57,0,0,0,.1.77q.41,2.06,4.2,3.66c.49.23,2.47.94,5.94,2.15q5.81,2.06,8.16,4.23a7.45,7.45,0,0,1,2.48,5.57q0,3.87-4.63,7.46a23.88,23.88,0,0,1-9.6,4.5,17.86,17.86,0,0,1-3.86.47,11.51,11.51,0,0,1-1.92-.17,7.38,7.38,0,0,1-5.71-4,1.59,1.59,0,0,1-.13-.4.42.42,0,0,1,.4-.34,2.21,2.21,0,0,1,1.58.84,4.1,4.1,0,0,1,.34.51,3.05,3.05,0,0,0,2.31,1.34,8.83,8.83,0,0,0,1.65.14,20.33,20.33,0,0,0,9.4-2.66c3.31-1.74,5.61-3.74,6.88-6a6.36,6.36,0,0,0,.88-3.06q0-3-3.63-4.87c-1-.49-3.07-1.32-6.31-2.48a27.8,27.8,0,0,1-7.83-3.8,9.76,9.76,0,0,1-2.25-2.41,5.17,5.17,0,0,1-.84-2.76q0-4.43,7.22-9.83c.83-.63,1.68-1.22,2.56-1.78a55,55,0,0,1,16.58-7.19c.65-.16,1.29-.3,1.92-.44a28.7,28.7,0,0,1,4.8-.63,6.48,6.48,0,0,1,4.43,1.41,2.57,2.57,0,0,1,.84,1.94c0,1.53-1,3.29-3,5.31l-.34.33A.62.62,0,0,1,133.27,141.63Z" transform="translate(-96 -127.32)"/><path class="cls-1" d="M130.92,156.87a.52.52,0,0,1,.37-.24,2.33,2.33,0,0,1,1.58.91,1.6,1.6,0,0,1,.43.81.35.35,0,0,1-.07.2q-2.91,6.18-3.22,9.6,0,.3,0,.57a3.7,3.7,0,0,0,.13,1h.07q2.79,0,8.26-5.6c.94-1,1.75-1.88,2.42-2.69a.3.3,0,0,1,.27-.13c.38,0,.78.33,1.2,1a1.83,1.83,0,0,1,.34.94,1.49,1.49,0,0,1-.13.37q-6.79,8.07-10.92,8.2a4.35,4.35,0,0,1-.94-.14,4.17,4.17,0,0,1-2.48-1.91,4.61,4.61,0,0,1-.57-2.42Q127.63,163.76,130.92,156.87Zm3.73-1.51a.57.57,0,0,1-.37.2,2.22,2.22,0,0,1-1.55-.87,1.88,1.88,0,0,1-.44-.84.64.64,0,0,1,.07-.24l2.79-4.46a.46.46,0,0,1,.4-.17,2.2,2.2,0,0,1,1.58.91,1.43,1.43,0,0,1,.4.77.6.6,0,0,1-.06.23Z" transform="translate(-96 -127.32)"/><path class="cls-1" d="M154.15,161.5a.74.74,0,0,1,.34-.1c.47,0,.94.33,1.41,1a1.44,1.44,0,0,1,.37.8.85.85,0,0,1-.1.34q-1.65,1.2-7.26,7.55a99.33,99.33,0,0,1-7.65,8.16,3.66,3.66,0,0,1-1.68,1h-.23c-1.93-.05-2.9-1.27-2.93-3.66q0-6.26,11.29-33.51c.22-.58.5-1.26.83-2q2.22-5.31,2.52-6.21a.42.42,0,0,1,.37-.24,2.26,2.26,0,0,1,1.58.84,1.71,1.71,0,0,1,.44.84,18.66,18.66,0,0,1-1.58,4.27c-.4.89-.73,1.62-1,2.18q-8.47,20.55-10.85,28.84a27.24,27.24,0,0,0-1.21,6.25q2.32-1.54,7.46-7.52,5.3-6.18,6.78-7.69C153.46,162.17,153.82,161.82,154.15,161.5Z" transform="translate(-96 -127.32)"/><path class="cls-1" d="M155.5,157.44a.48.48,0,0,1,.4-.27,2.06,2.06,0,0,1,1.48.84,1.59,1.59,0,0,1,.36.81.53.53,0,0,1,0,.2l-1.17,3.42a24.28,24.28,0,0,0-1.21,6.48,6.66,6.66,0,0,0,.1,1.21q2.12-.81,5.77-5.67l.64-.88a28.46,28.46,0,0,0,2.38-3.86l.41-1.91c.06-.14.11-.2.13-.2a.44.44,0,0,1,.41-.24,1.87,1.87,0,0,1,1.47.88,1.8,1.8,0,0,1,.44,1.24,14.07,14.07,0,0,0-.5,1.64,1.25,1.25,0,0,0,0,.31,3.55,3.55,0,0,0,0,.63,2,2,0,0,0,1,.2,18,18,0,0,0,5-.9.79.79,0,0,1,.23,0,1.92,1.92,0,0,1,1.48,1,1.24,1.24,0,0,1,.3.7.48.48,0,0,1-.3.37,16.21,16.21,0,0,1-4.9.94,5.72,5.72,0,0,1-3.9-1.34,36.76,36.76,0,0,1-5,6.61q-2.61,2.68-4.2,2.72h-.06a3,3,0,0,1-2.66-1.91,5.7,5.7,0,0,1-.5-1.51,7.31,7.31,0,0,1-.07-1.11,12.41,12.41,0,0,1,.09-1.41c.05-.51.13-1,.22-1.53s.19-1,.32-1.54.25-1,.4-1.5.28-.92.42-1.37.26-.85.38-1.21.23-.67.32-.94.16-.47.2-.61Z" transform="translate(-96 -127.32)"/><path class="cls-1" d="M174.53,156.87a.54.54,0,0,1,.37-.24,2.33,2.33,0,0,1,1.58.91,1.64,1.64,0,0,1,.44.81.44.44,0,0,1-.07.2q-2.92,6.18-3.22,9.6a3.82,3.82,0,0,0,0,.57,3.73,3.73,0,0,0,.14,1h.06q2.79,0,8.26-5.6c.94-1,1.75-1.88,2.42-2.69a.32.32,0,0,1,.27-.13c.38,0,.78.33,1.21,1a1.9,1.9,0,0,1,.33.94,1.17,1.17,0,0,1-.13.37q-6.78,8.07-10.91,8.2a4.27,4.27,0,0,1-.94-.14,4.16,4.16,0,0,1-2.49-1.91,4.61,4.61,0,0,1-.57-2.42Q171.24,163.76,174.53,156.87Zm3.73-1.51a.54.54,0,0,1-.37.2,2.2,2.2,0,0,1-1.54-.87,1.79,1.79,0,0,1-.44-.84.49.49,0,0,1,.07-.24l2.78-4.46a.48.48,0,0,1,.41-.17,2.18,2.18,0,0,1,1.57.91,1.53,1.53,0,0,1,.41.77.65.65,0,0,1-.07.23Z" transform="translate(-96 -127.32)"/><path class="cls-1" d="M186.42,157a.54.54,0,0,1,.37-.2,2.31,2.31,0,0,1,1.58.9,1.68,1.68,0,0,1,.43.81.32.32,0,0,1-.07.2s-1.18,2.33-3.49,6.85q6.48-6.27,8.8-7.25l.47-.17a3.32,3.32,0,0,1,.77-.1,3.42,3.42,0,0,1,2.65,1.31,5.41,5.41,0,0,1,.88,3.49c0,.52-.13,1.9-.37,4.17,0,.24,0,.42,0,.53a.4.4,0,0,0,.07.27l.1,0q1.19,0,8.3-5.33c.62-.47,1-.79,1.2-.94a.4.4,0,0,1,.24-.07c.4,0,.83.36,1.28,1.07a2.06,2.06,0,0,1,.33,1,.8.8,0,0,1-.17.4c-2.24,1.84-3.8,3-4.7,3.63a10.31,10.31,0,0,1-5.2,2,3.81,3.81,0,0,1-2.12-.67,4.79,4.79,0,0,1-1.57-4c0-.52,0-1.29.13-2.32s.13-1.66.13-2.08v-.37q-2,.51-7.82,6.14c-3,2.94-4.8,4.6-5.27,5a4.2,4.2,0,0,1-1.54,1c-1.28-.11-1.95-.72-2-1.81Q179.77,169.77,186.42,157Z" transform="translate(-96 -127.32)"/><path class="cls-1" d="M217.61,159.89c-.18.38-.66.31-1.44-.2a2,2,0,0,1-.34-.27,10.72,10.72,0,0,0-4.73,2.85,5.53,5.53,0,0,0-1.88,3.7,2.5,2.5,0,0,0,.1.74,7.92,7.92,0,0,0,3.56-1.88,37,37,0,0,0,3.34-2.86q1-1.07,1.89-2l0,0a.71.71,0,0,1,.57-.27c.53,0,1.05.37,1.54,1.11a1.3,1.3,0,0,1,.27.67.22.22,0,0,1-.07.13,20.12,20.12,0,0,0-.2,2.55,6.37,6.37,0,0,0,.24,1.82.8.8,0,0,0,.74.43q2.2,0,10-4.86a.48.48,0,0,1,.31-.1,2,2,0,0,1,1.47.94,1.69,1.69,0,0,1,.37.8.44.44,0,0,1-.2.34c-.27.18-.7.46-1.31.84a32.72,32.72,0,0,1-7.08,3.72,7.14,7.14,0,0,1-2.15.37,5.12,5.12,0,0,1-1-.13,4.63,4.63,0,0,1-3.69-4.06q-4.84,4.5-7.39,4.53h-.3a3.81,3.81,0,0,1-2.79-1.85,4.57,4.57,0,0,1-.5-1.11,4.19,4.19,0,0,1-.14-1.1q0-2.79,3.26-5.34a11.6,11.6,0,0,1,3.86-2,3.62,3.62,0,0,1,1-.14,3,3,0,0,1,2.31,1.11A1.55,1.55,0,0,1,217.61,159.89Z" transform="translate(-96 -127.32)"/><path class="cls-1" d="M244,168.86s0,0-.1,0l-.1,0a2.2,2.2,0,0,1-1.61-1,1.88,1.88,0,0,1-.34-.74.44.44,0,0,1,.24-.33l.23-.07q7.13-2,14.74-3.59,12.17-21.69,18.5-28.84c-1.14.49-2.39,1.05-3.76,1.67l-3.22,1.48-1.17.54a.68.68,0,0,1-.27.07,2.25,2.25,0,0,1-1.61-1,1.7,1.7,0,0,1-.37-.77.41.41,0,0,1,.23-.3l7.42-3.36c4.43-1.92,7-2.89,7.82-2.89a2.45,2.45,0,0,1,1.72.84,1.59,1.59,0,0,1,.43.88,1.17,1.17,0,0,1-.23.57,13.65,13.65,0,0,1-1.95,1.51q-5.61,3.75-19.44,28.1,15.78-21.45,23.37-26.86c.51-.36,1-.66,1.41-.91a5.17,5.17,0,0,1,2.52-.7,4.14,4.14,0,0,1,3.76,2.52,8,8,0,0,1,.67,1.84,11.49,11.49,0,0,1,.2,2.39q0,6.11-5,20.28a6.54,6.54,0,0,1,4.1,1.57,1.34,1.34,0,0,1,.37.61c-.05.16-.19.25-.44.27a.7.7,0,0,1-.27,0c-1.2-.2-2.69-.35-4.46-.47-.11.32-.38,1-.81,2.12q-4.72,12.5-4.73,15v.3c-.07.25-.29.39-.67.44a1.54,1.54,0,0,1-1.48-1.24,4.11,4.11,0,0,1-.17-1.21,9.79,9.79,0,0,1,.37-2.28q.78-2.9,4.57-13.27h-.24a120.42,120.42,0,0,0-21.45,2.35l-2.44,3.34L258.05,171c-.7,1-1.4,2-2.08,3l-1.88,2.7c-.57.82-1.11,1.59-1.61,2.33l-1.33,1.95-1,1.46-.65,1-.21.33a.43.43,0,0,1-.36.17,2.18,2.18,0,0,1-1.58-.91,1.57,1.57,0,0,1-.41-.77.55.55,0,0,1,0-.23s.13-.25.33-.68q4.23-8.06,8.23-15.31l-3.76.89-3.22.81-2.4.64-1.6.42Zm20.75-7.16a113.14,113.14,0,0,1,18-1.71c.58,0,1.39,0,2.45.07q4.8-13.2,5.47-20.18a15.29,15.29,0,0,0,.1-1.68c0-1.61-.31-2.67-.87-3.19a.63.63,0,0,0-.41-.13q-2.75,0-16.18,16.18Q267.37,158.22,264.78,161.7Z" transform="translate(-96 -127.32)"/><path class="cls-1" d="M297.38,157a.57.57,0,0,1,.37-.2,2.29,2.29,0,0,1,1.58.9,1.63,1.63,0,0,1,.44.81.32.32,0,0,1-.07.2s-1.19,2.33-3.49,6.85q6.48-6.27,8.8-7.25l.47-.17a3.26,3.26,0,0,1,.77-.1,3.44,3.44,0,0,1,2.65,1.31,5.47,5.47,0,0,1,.87,3.49c0,.52-.12,1.9-.36,4.17a4.52,4.52,0,0,0,0,.53c0,.14,0,.23.07.27l.1,0q1.17,0,8.29-5.33c.63-.47,1-.79,1.21-.94a.4.4,0,0,1,.24-.07c.4,0,.82.36,1.27,1.07a2,2,0,0,1,.34,1,.8.8,0,0,1-.17.4c-2.24,1.84-3.81,3-4.7,3.63a10.34,10.34,0,0,1-5.2,2,3.79,3.79,0,0,1-2.12-.67,4.8,4.8,0,0,1-1.58-4c0-.52.05-1.29.14-2.32s.13-1.66.13-2.08v-.37q-2,.51-7.82,6.14c-3.05,2.94-4.8,4.6-5.27,5a4.13,4.13,0,0,1-1.55,1c-1.27-.11-1.95-.72-2-1.81Q290.74,169.77,297.38,157Z" transform="translate(-96 -127.32)"/><path class="cls-1" d="M331.5,158.85a1.36,1.36,0,0,0-.14-.1l-.1-.07-.53,1q-3.84,7.08-6.48,9.37a4.58,4.58,0,0,1-2.83,1.31,2.83,2.83,0,0,1-1.54-.51A5.58,5.58,0,0,1,318,165.3a9.82,9.82,0,0,1,.63-3.33,10,10,0,0,1,4.71-5.74,6.82,6.82,0,0,1,3.08-.74,8,8,0,0,1,3,.64q4.93-8.9,10.27-20.82l.07-.1a.53.53,0,0,1,.4-.23,2.42,2.42,0,0,1,1.58.8c.36.36.49.66.4.91q-5.17,12.9-9.77,26.86-4.69,14.34-4.7,18.63a2.12,2.12,0,0,0,.07.51,3.94,3.94,0,0,1,0,.4.42.42,0,0,1-.4.34,2.29,2.29,0,0,1-1.58-.81,1.62,1.62,0,0,1-.44-.77,6.78,6.78,0,0,1-.06-1.08q0-4.53,5.44-19.8C331,160.29,331.23,159.59,331.5,158.85Zm-2.92-1.21a4.91,4.91,0,0,0-.61-.07q-2.93,0-5.44,3.4a11.51,11.51,0,0,0-2.38,5.6c0,.23,0,.43,0,.61a3.16,3.16,0,0,0,.2,1.21Q322.87,167.61,328.58,157.64Z" transform="translate(-96 -127.32)"/><path class="cls-1" d="M356.44,161.7c.32-.29.77-.13,1.35.47s.76,1.08.53,1.41c0,0-.06,0-.06.07q-.27.24-4.5,4.9-7.39,8.1-10.21,8.87a2.14,2.14,0,0,1-1.07,0,3.76,3.76,0,0,1-1.82-1.41q-1.28-1.92,2.86-9.44c.2-.38.51-.94.94-1.68.56-1,.93-1.69,1.11-2-2.76.82-4.88.72-6.38-.31a3.78,3.78,0,0,1-1.61-4.16,4.9,4.9,0,0,1,1.91-3.26,3.07,3.07,0,0,1,1-.5,2.54,2.54,0,0,1,2.65.94,3.71,3.71,0,0,1,.91,1.61,6.47,6.47,0,0,1-.81,3.76,8.46,8.46,0,0,0,1-.33,8.78,8.78,0,0,1,2.15-.61,2.51,2.51,0,0,1,2.22,1.65q.36,1-2.35,6-2.79,5.2-3.29,6.45a8.1,8.1,0,0,0-.37,1.21q2.25-1.05,8.86-8.23Q355.78,162.37,356.44,161.7Zm-16.65-.47a11.72,11.72,0,0,0,1.88-4.16,5.29,5.29,0,0,0-1.34,1.88,6.65,6.65,0,0,0-.57,1.81A1,1,0,0,0,339.79,161.23Z" transform="translate(-96 -127.32)"/><path class="cls-1" d="M357,166.91c-.36.18-.54.68-.54,1.51s.25,1.25.67,1.41a4.75,4.75,0,0,0,1.38.2q4.23,0,11.88-5.61c1.33-1,2.49-1.89,3.5-2.78a.43.43,0,0,1,.26-.1c.45,0,.91.33,1.38,1a1.69,1.69,0,0,1,.37.91.86.86,0,0,1-.13.34,37.26,37.26,0,0,1-3.56,2.78q-7.62,5.48-12.29,5.51a6,6,0,0,1-.87,0c-2.85-.38-4.42-1.67-4.74-3.89a4.63,4.63,0,0,1-.07-.74,10.91,10.91,0,0,1,2.62-6.48,10.74,10.74,0,0,1,5-4,5,5,0,0,1,1.08-.2H363a3.35,3.35,0,0,1,2.69,1.38,3,3,0,0,1,.7,1.84,2.89,2.89,0,0,1-.33,1.24,5.31,5.31,0,0,1-1,1.25,11.88,11.88,0,0,1-1.51,1.17c-.55.36-1.13.71-1.74,1s-1.21.64-1.77.91-1.07.5-1.52.7-.83.35-1.1.44Zm1.88-3.73q4.53-2.31,5.1-4.23a10.61,10.61,0,0,0-4.43,3.43A8.12,8.12,0,0,0,358.83,163.18Z" transform="translate(-96 -127.32)"/><path class="cls-1" d="M383.47,159.89c-.18.38-.66.31-1.44-.2a2,2,0,0,1-.34-.27,10.78,10.78,0,0,0-4.73,2.85,5.58,5.58,0,0,0-1.88,3.7,2.5,2.5,0,0,0,.1.74,7.87,7.87,0,0,0,3.56-1.88,37,37,0,0,0,3.34-2.86c.7-.71,1.34-1.37,1.9-2l0,0a.74.74,0,0,1,.57-.27c.54,0,1.05.37,1.54,1.11a1.3,1.3,0,0,1,.27.67.31.31,0,0,1-.06.13,18.61,18.61,0,0,0-.21,2.55,6.37,6.37,0,0,0,.24,1.82.8.8,0,0,0,.74.43q2.22,0,10-4.86a.47.47,0,0,1,.3-.1,2,2,0,0,1,1.48.94,1.91,1.91,0,0,1,.37.8.45.45,0,0,1-.21.34c-.26.18-.7.46-1.3.84a33,33,0,0,1-7.09,3.72,7.09,7.09,0,0,1-2.15.37,5.21,5.21,0,0,1-1-.13,4.66,4.66,0,0,1-3.69-4.06q-4.85,4.5-7.39,4.53h-.3a3.81,3.81,0,0,1-2.79-1.85,4.57,4.57,0,0,1-.5-1.11,4.19,4.19,0,0,1-.14-1.1q0-2.79,3.26-5.34a11.7,11.7,0,0,1,3.86-2,3.68,3.68,0,0,1,1-.14,3.06,3.06,0,0,1,2.32,1.11A1.57,1.57,0,0,1,383.47,159.89Z" transform="translate(-96 -127.32)"/><path class="cls-1" d="M406.77,147.9a2.61,2.61,0,0,1,1.38,1.21,1,1,0,0,0,.07.17c.11.4,0,.59-.44.57a1.11,1.11,0,0,1-.44-.1c-3.17-1.3-5.09-2.89-5.74-4.77a3.78,3.78,0,0,1-.2-1.17q0-3.33,5.91-6.48a36.88,36.88,0,0,1,11.18-3.83,20.69,20.69,0,0,1,3.59-.37,8.33,8.33,0,0,1,1.41.1,5.59,5.59,0,0,1,3.46,2.08,4.88,4.88,0,0,1,.61,2.76q0,3.93-3.26,15.37-.3,1.16-.87,3.09c0,.12-.13.46-.3,1q-4.61,14.88-4.61,19.71c0,1.48.36,2.23,1,2.25a1.75,1.75,0,0,0,.51-.1q5.7-2.44,13.69-11.75a116.75,116.75,0,0,0,14-20.41q6.58-12.17,6.58-19.21a1.06,1.06,0,0,0,0-.2v-.17a.43.43,0,0,1,.4-.37,2.2,2.2,0,0,1,1.55.81,1.57,1.57,0,0,1,.47.87v.4q0,7.23-6.58,19.51A117.45,117.45,0,0,1,436,169.46q-8,9.33-13.87,11.92l-.1,0a4.79,4.79,0,0,1-1.78.44,3.8,3.8,0,0,1-2.79-1.41c-.71-.81-1.07-2.19-1.07-4.16q0-4.91,3.52-17.4L421,155q3.69-12.87,4.2-16.62a12.24,12.24,0,0,0,.13-1.65,3,3,0,0,0-.2-1.28,5.89,5.89,0,0,0-1.94-.26,27.81,27.81,0,0,0-9.88,2.35q-6.3,2.48-8.59,5.33a3.7,3.7,0,0,0-1,2.25,2.51,2.51,0,0,0,.13.74C404.21,146.56,405.16,147.26,406.77,147.9Z" transform="translate(-96 -127.32)"/><path class="cls-1" d="M451.87,156.87a.52.52,0,0,1,.37-.24,2.31,2.31,0,0,1,1.57.91,1.56,1.56,0,0,1,.44.81.35.35,0,0,1-.07.2q-2.91,6.18-3.22,9.6,0,.3,0,.57a3.7,3.7,0,0,0,.13,1h.07q2.78,0,8.26-5.6c.94-1,1.74-1.88,2.41-2.69a.32.32,0,0,1,.27-.13c.38,0,.79.33,1.21,1a1.93,1.93,0,0,1,.34.94,1.54,1.54,0,0,1-.14.37q-6.78,8.07-10.91,8.2a4.27,4.27,0,0,1-.94-.14,4.17,4.17,0,0,1-2.48-1.91,4.52,4.52,0,0,1-.57-2.42Q448.58,163.76,451.87,156.87Zm3.72-1.51a.54.54,0,0,1-.37.2,2.22,2.22,0,0,1-1.54-.87,1.79,1.79,0,0,1-.44-.84.49.49,0,0,1,.07-.24l2.79-4.46a.46.46,0,0,1,.4-.17,2.22,2.22,0,0,1,1.58.91,1.5,1.5,0,0,1,.4.77.49.49,0,0,1-.07.23Z" transform="translate(-96 -127.32)"/><path class="cls-1" d="M474,158.85a1.36,1.36,0,0,0-.14-.1l-.1-.07c-.09.18-.27.52-.54,1q-3.83,7.08-6.48,9.37a4.58,4.58,0,0,1-2.82,1.31,2.83,2.83,0,0,1-1.54-.51,5.58,5.58,0,0,1-1.92-4.56,9.84,9.84,0,0,1,.64-3.33,10,10,0,0,1,4.7-5.74,6.89,6.89,0,0,1,3.09-.74,8,8,0,0,1,3,.64q4.94-8.9,10.28-20.82l.06-.1a.55.55,0,0,1,.41-.23,2.42,2.42,0,0,1,1.58.8c.35.36.49.66.4.91q-5.18,12.9-9.77,26.86-4.71,14.34-4.7,18.63a2.67,2.67,0,0,0,.06.51,2.51,2.51,0,0,1,0,.4.43.43,0,0,1-.4.34,2.27,2.27,0,0,1-1.58-.81,1.54,1.54,0,0,1-.44-.77,6.49,6.49,0,0,1-.07-1.08q0-4.53,5.44-19.8Zm-2.93-1.21a5,5,0,0,0-.6-.07q-2.92,0-5.44,3.4a11.51,11.51,0,0,0-2.38,5.6,4.66,4.66,0,0,0,0,.61,3.37,3.37,0,0,0,.2,1.21Q465.39,167.61,471.1,157.64Z" transform="translate(-96 -127.32)"/><path class="cls-1" d="M482.72,166.91c-.36.18-.54.68-.54,1.51s.25,1.25.67,1.41a4.75,4.75,0,0,0,1.38.2q4.23,0,11.89-5.61,2-1.44,3.49-2.78a.43.43,0,0,1,.27-.1c.45,0,.9.33,1.37,1a1.69,1.69,0,0,1,.37.91.73.73,0,0,1-.13.34,37.26,37.26,0,0,1-3.56,2.78q-7.62,5.48-12.29,5.51a6.09,6.09,0,0,1-.87,0c-2.84-.38-4.42-1.67-4.74-3.89a4.62,4.62,0,0,1-.06-.74,10.85,10.85,0,0,1,2.62-6.48,10.64,10.64,0,0,1,5-4,4.88,4.88,0,0,1,1.07-.2h.13a3.34,3.34,0,0,1,2.69,1.38,3,3,0,0,1,.71,1.84,3.05,3.05,0,0,1-.34,1.24,5.07,5.07,0,0,1-1,1.25,11.21,11.21,0,0,1-1.51,1.17c-.54.36-1.13.71-1.74,1s-1.21.64-1.76.91-1.07.5-1.53.7-.82.35-1.09.44Zm1.88-3.73q4.53-2.31,5.1-4.23a10.67,10.67,0,0,0-4.43,3.43A9.79,9.79,0,0,0,484.6,163.18Z" transform="translate(-96 -127.32)"/><path class="cls-1" d="M513.24,161.5a.7.7,0,0,1,.34-.1c.47,0,.94.33,1.41,1a1.44,1.44,0,0,1,.37.8.85.85,0,0,1-.1.34q-1.65,1.2-7.26,7.55a99.33,99.33,0,0,1-7.65,8.16,3.66,3.66,0,0,1-1.68,1h-.24q-2.88-.08-2.92-3.66,0-6.26,11.28-33.51c.23-.58.51-1.26.84-2q2.22-5.31,2.52-6.21a.41.41,0,0,1,.37-.24,2.26,2.26,0,0,1,1.58.84,1.71,1.71,0,0,1,.44.84,18.66,18.66,0,0,1-1.58,4.27c-.41.89-.73,1.62-1,2.18q-8.46,20.55-10.84,28.84a27.24,27.24,0,0,0-1.21,6.25q2.31-1.54,7.45-7.52,5.31-6.18,6.79-7.69C512.55,162.17,512.91,161.82,513.24,161.5Z" transform="translate(-96 -127.32)"/><path class="cls-1" d="M522.84,159.89c-.18.38-.66.31-1.44-.2a2,2,0,0,1-.34-.27,10.78,10.78,0,0,0-4.73,2.85,5.58,5.58,0,0,0-1.88,3.7,2.5,2.5,0,0,0,.1.74,7.87,7.87,0,0,0,3.56-1.88,35.67,35.67,0,0,0,3.34-2.86c.71-.71,1.34-1.37,1.9-2l0,0a.74.74,0,0,1,.57-.27c.54,0,1,.37,1.55,1.11a1.36,1.36,0,0,1,.26.67.31.31,0,0,1-.06.13,18.42,18.42,0,0,0-.2,2.55,6.38,6.38,0,0,0,.23,1.82.81.81,0,0,0,.74.43q2.22,0,10-4.86a.47.47,0,0,1,.3-.1,2,2,0,0,1,1.48.94,1.91,1.91,0,0,1,.37.8.47.47,0,0,1-.2.34l-1.31.84a33,33,0,0,1-7.09,3.72,7.09,7.09,0,0,1-2.15.37,5.21,5.21,0,0,1-1-.13,4.66,4.66,0,0,1-3.69-4.06c-3.22,3-5.69,4.51-7.39,4.53h-.3a3.81,3.81,0,0,1-2.79-1.85,4.57,4.57,0,0,1-.5-1.11,4.2,4.2,0,0,1-.13-1.1q0-2.79,3.25-5.34a11.7,11.7,0,0,1,3.86-2,3.68,3.68,0,0,1,1-.14,3.06,3.06,0,0,1,2.32,1.11A1.57,1.57,0,0,1,522.84,159.89Z" transform="translate(-96 -127.32)"/><path class="cls-1" d="M364.11,201.27h1.1l3.42,9.28h-1.4l-2.57-7.48-2.57,7.48h-1.4Zm-1.85,6h4.88v1.23h-4.88Z" transform="translate(-96 -127.32)"/><path class="cls-1" d="M370,201.27h1.3v9.28H370Zm.56,4.12h3.17a1.2,1.2,0,0,0,.65-.18,1.25,1.25,0,0,0,.45-.51,2,2,0,0,0,0-1.51,1.22,1.22,0,0,0-.44-.51,1.2,1.2,0,0,0-.66-.17H370.6v-1.24h3.11a3,3,0,0,1,1.42.33,2.3,2.3,0,0,1,.94.94,2.94,2.94,0,0,1,.34,1.41,2.87,2.87,0,0,1-.34,1.4,2.32,2.32,0,0,1-.95.94,2.91,2.91,0,0,1-1.41.34H370.6Zm2.53,1,1.29-.3,2.37,4.51h-1.54Z" transform="translate(-96 -127.32)"/><path class="cls-1" d="M377.27,201.27h6.55v1.24h-6.55Zm2.62.76h1.3v8.52h-1.3Z" transform="translate(-96 -127.32)"/><path class="cls-1" d="M386.39,210.55h-1.3v-9.28h1.3Z" transform="translate(-96 -127.32)"/><path class="cls-1" d="M390.2,210.51a4.62,4.62,0,0,1-1.12-.38,4.93,4.93,0,0,1-1-.64l.81-1a3.58,3.58,0,0,0,1.17.69,4.12,4.12,0,0,0,1.38.23A2.78,2.78,0,0,0,393,209a1.18,1.18,0,0,0,.55-1h0a1.12,1.12,0,0,0-.25-.77,1.74,1.74,0,0,0-.65-.42,8.23,8.23,0,0,0-1-.25h-.08l-.1,0a10.58,10.58,0,0,1-1.51-.36,2.1,2.1,0,0,1-1-.73,2.41,2.41,0,0,1-.42-1.52h0a2.64,2.64,0,0,1,.39-1.47,2.4,2.4,0,0,1,1.12-.93,4.85,4.85,0,0,1,2.76-.21,4.83,4.83,0,0,1,.95.32,5.13,5.13,0,0,1,.92.54l-.74,1a4.23,4.23,0,0,0-1.05-.58,3,3,0,0,0-1.06-.2,2.5,2.5,0,0,0-1.47.38,1.26,1.26,0,0,0-.53,1.08h0a1.05,1.05,0,0,0,.27.76,1.71,1.71,0,0,0,.68.4,8.84,8.84,0,0,0,1.12.27h.17l.07,0a8.13,8.13,0,0,1,1.41.4,2.25,2.25,0,0,1,.94.77,2.43,2.43,0,0,1,.38,1.43v0a2.62,2.62,0,0,1-.4,1.45,2.53,2.53,0,0,1-1.17.92,4.82,4.82,0,0,1-1.84.31A5.82,5.82,0,0,1,390.2,210.51Z" transform="translate(-96 -127.32)"/><path class="cls-1" d="M395.45,201.27H402v1.24h-6.55Zm2.62.76h1.3v8.52h-1.3Z" transform="translate(-96 -127.32)"/><path class="cls-1" d="M405.22,201.27h1.11l3.42,9.28h-1.4l-2.57-7.48-2.57,7.48H401.8Zm-1.84,6h4.88v1.23h-4.88Z" transform="translate(-96 -127.32)"/><path class="cls-1" d="M414.66,201.27H416v9.28h-1.3Zm.67,4.44h3a1.38,1.38,0,0,0,.74-.19,1.32,1.32,0,0,0,.5-.57,2.14,2.14,0,0,0,0-1.67,1.32,1.32,0,0,0-.5-.57,1.39,1.39,0,0,0-.74-.2h-3v-1.24h2.92a2.9,2.9,0,0,1,1.46.36,2.42,2.42,0,0,1,1,1,3.35,3.35,0,0,1,0,3,2.4,2.4,0,0,1-1,1,3,3,0,0,1-1.46.35h-2.92Z" transform="translate(-96 -127.32)"/><path class="cls-1" d="M422.66,201.27H424v9.28h-1.3Zm.65,8h5.31v1.24h-5.31Z" transform="translate(-96 -127.32)"/><path class="cls-1" d="M432.8,201.27h1.11l3.42,9.28h-1.41l-2.57-7.48-2.56,7.48h-1.41Zm-1.84,6h4.87v1.23H431Z" transform="translate(-96 -127.32)"/><path class="cls-1" d="M439.74,210.51a4.48,4.48,0,0,1-1.12-.38,4.4,4.4,0,0,1-1-.64l.81-1a3.54,3.54,0,0,0,1.16.69,4.18,4.18,0,0,0,1.39.23,2.77,2.77,0,0,0,1.56-.38,1.18,1.18,0,0,0,.55-1h0a1.12,1.12,0,0,0-.25-.77,1.66,1.66,0,0,0-.65-.42,7.81,7.81,0,0,0-1-.25h-.08l-.1,0a10.92,10.92,0,0,1-1.51-.36,2.15,2.15,0,0,1-1-.73,2.41,2.41,0,0,1-.41-1.52h0a2.64,2.64,0,0,1,.38-1.47,2.38,2.38,0,0,1,1.13-.93,4.5,4.5,0,0,1,1.78-.32,4.67,4.67,0,0,1,1,.11,5.06,5.06,0,0,1,.95.32,5.51,5.51,0,0,1,.92.54l-.74,1a4.47,4.47,0,0,0-1.06-.58,3,3,0,0,0-1.05-.2,2.51,2.51,0,0,0-1.48.38,1.26,1.26,0,0,0-.53,1.08h0a1,1,0,0,0,.28.76,1.67,1.67,0,0,0,.67.4,9.07,9.07,0,0,0,1.13.27h.16l.07,0a8.13,8.13,0,0,1,1.41.4,2.25,2.25,0,0,1,.94.77,2.36,2.36,0,0,1,.38,1.43v0a2.4,2.4,0,0,1-1.56,2.37,4.85,4.85,0,0,1-1.84.31A5.76,5.76,0,0,1,439.74,210.51Z" transform="translate(-96 -127.32)"/><path class="cls-1" d="M445,201.27h6.54v1.24H445Zm2.62.76h1.3v8.52h-1.3Z" transform="translate(-96 -127.32)"/><path class="cls-1" d="M454.1,210.55h-1.3v-9.28h1.3Z" transform="translate(-96 -127.32)"/><path class="cls-1" d="M457.74,210.21a2.82,2.82,0,0,1-1.13-1.21,3.89,3.89,0,0,1-.4-1.81v-2.55a3.93,3.93,0,0,1,.4-1.82,2.93,2.93,0,0,1,1.13-1.21,3.24,3.24,0,0,1,1.69-.43,3.12,3.12,0,0,1,1.47.34,3.07,3.07,0,0,1,1.12,1,3.65,3.65,0,0,1,.61,1.44H461.3a2.13,2.13,0,0,0-.41-.77,2.09,2.09,0,0,0-.66-.53,1.87,1.87,0,0,0-.8-.18,1.81,1.81,0,0,0-1,.27,1.84,1.84,0,0,0-.66.77,2.6,2.6,0,0,0-.24,1.15v2.55a2.58,2.58,0,0,0,.24,1.14,1.73,1.73,0,0,0,.66.77,2,2,0,0,0,1.79.1,1.79,1.79,0,0,0,.66-.51,2,2,0,0,0,.41-.8h1.33a3.59,3.59,0,0,1-.61,1.44,3.1,3.1,0,0,1-2.59,1.31A3.24,3.24,0,0,1,457.74,210.21Z" transform="translate(-96 -127.32)"/><path class="cls-1" d="M466.62,201.27h1.11l3.42,9.28h-1.4l-2.57-7.48-2.57,7.48H463.2Zm-1.84,6h4.88v1.23h-4.88Z" transform="translate(-96 -127.32)"/><path class="cls-2" d="M365,92" transform="translate(-96 -127.32)"/><path class="cls-1" d="M114.77,216.72a589.31,589.31,0,0,1,65.73-14.19c22.76-3.72,45.69-6.38,68.68-8.22s46-2.85,69-3.29,46.22-.32,69.33.15,46.4,1.26,69.6,2.16l8.5.34c1.32.05,3.09-.79,4.36-1.13l3.07-.83a5,5,0,0,1,1.27-.37c-24-1-48-1.83-72-2.37s-48.05-.75-72.07-.34-47.88,1.41-71.76,3.3-47.72,4.67-71.36,8.61a718.84,718.84,0,0,0-70.79,15.61c-3.06.83-6.1,1.68-9.15,2.54-1.64.47,1.43-.32,1.58-.36,2-.52,4-1,5.94-1.61Z" transform="translate(-96 -127.32)"/></svg>